:version 1.10
:name ASF
:units
  mass 1
  length 1
  angle deg
:documentation
  ASF file generated by Kaydara
:root
  axis xyz
  order  tx ty tz rx ry rz
  position 0 0 0
  orientation 0 0 0
:bonedata
  begin
    id 1
    name abdomenDummy
    direction 1 -1.27917e-005 -1.26829e-007
    length 1.79048
    axis 0 0 0 xyz
  end
  begin
    id 2
    name abdomen
    direction 0.987238 0.159249 -9.68575e-008
    length 8.61378
    axis 2.73208e-005 5.54953e-006 9.16328 xyz
    dof rx ry rz
  end
  begin
    id 3
    name chest
    direction 0 0 0
    length 0
    axis 2.65071e-005 8.63688e-006 2.59796 xyz
    dof rx ry rz
  end
  begin
    id 4
    name neckDummyDummy
    direction 0.998972 0.0453274 -1.50742e-007
    length 9.56202
    axis 2.65071e-005 8.63688e-006 2.59796 xyz
  end
  begin
    id 5
    name neckDummy
    direction 0.99977 0.0214525 -1.61748e-007
    length 1.93574
    axis 2.62932e-005 9.26758e-006 1.22924 xyz
    dof rx ry rz
  end
  begin
    id 6
    name neck
    direction 0.99928 -0.0379406 -1.88707e-007
    length 3.70367
    axis 2.56966e-005 1.08122e-005 -2.17436 xyz
    dof rx ry rz
  end
  begin
    id 7
    name head
    direction 0.992648 -0.121037 -2.25408e-007
    length 6.35158
    axis 2.47068e-005 1.29149e-005 -6.95196 xyz
    dof rx ry rz
  end
  begin
    id 8
    name figureHair
    direction -0.86681 -0.498639 -7.83376e-008
    length 8.29884
    axis -2.7515e-005 4.48842e-006 -150.09 xyz
    dof rx ry rz
  end
  begin
    id 9
    name lCollarDummy
    direction 0.994611 0.0451299 -0.0933417
    length 9.60395
    axis 2.65071e-005 8.63688e-006 2.59796 xyz
  end
  begin
    id 10
    name lCollar
    direction 0.0384146 0.00127577 -0.999261
    length 6.95318
    axis 90.4899 87.7973 1.90202 xyz
    dof rx ry rz
  end
  begin
    id 11
    name lShldr
    direction -0.030648 0.0920515 -0.995282
    length 9.61158
    axis -161.793 84.4324 108.415 xyz
    dof rx ry rz
  end
  begin
    id 12
    name lForeArm
    direction 0.000163956 -0.0977586 -0.99521
    length 8.6068
    axis 0.134773 84.3899 -89.8525 xyz
    dof rx ry rz
  end
  begin
    id 13
    name lHand
    direction -0.0190533 -0.1444 -0.989336
    length 7.61479
    axis -7.3729 81.6249 -97.517 xyz
    dof rx ry rz
  end
  begin
    id 14
    name rCollarDummy
    direction 0.994871 0.0442627 0.0909555
    length 9.60761
    axis 2.65071e-005 8.63688e-006 2.59796 xyz
  end
  begin
    id 15
    name rCollar
    direction 0.0334251 -4.74072e-007 0.999441
    length 6.97058
    axis -178.152 -88.0845 -0.000674207 xyz
    dof rx ry rz
  end
  begin
    id 16
    name rShldr
    direction -0.026922 0.0719509 0.997045
    length 9.60913
    axis 71.2822 -85.594 110.514 xyz
    dof rx ry rz
  end
  begin
    id 17
    name rForeArm
    direction 0.00134679 -0.118986 0.992895
    length 8.57176
    axis -88.7923 -83.1659 -89.3516 xyz
    dof rx ry rz
  end
  begin
    id 18
    name rHand
    direction -0.0185183 -0.0768601 0.99687
    length 7.69687
    axis -74.5596 -85.4655 -103.546 xyz
    dof rx ry rz
  end
  begin
    id 19
    name lThighDummy
    direction -0.236086 -0.0385456 -0.970967
    length 4.99155
    axis 0 0 0 xyz
  end
  begin
    id 20
    name lThigh
    direction -0.993968 0.0148998 -0.108653
    length 13.572
    axis -91.4001 6.23768 179.141 xyz
    dof rx ry rz
  end
  begin
    id 21
    name lShin
    direction -0.992341 0.0904576 -0.0841193
    length 18.5862
    axis -91.4558 4.82538 174.792 xyz
    dof rx ry rz
  end
  begin
    id 22
    name lFoot
    direction 0.0209381 -0.999771 -0.00453005
    length 8.44474
    axis 4.86759 0.259522 -88.8001 xyz
    dof rx ry rz
  end
  begin
    id 23
    name rThighDummy
    direction -0.236086 -0.0385456 0.970967
    length 4.99155
    axis 0 0 0 xyz
  end
  begin
    id 24
    name rThigh
    direction -0.993968 0.0148995 0.108653
    length 13.5721
    axis -89.7059 -6.2377 179.141 xyz
    dof rx ry rz
  end
  begin
    id 25
    name rShin
    direction -0.9925 0.0899962 0.0827255
    length 18.6716
    axis -89.2745 -4.74775 174.819 xyz
    dof rx ry rz
  end
  begin
    id 26
    name rFoot
    direction 0.0301721 -0.999545 9.70865e-005
    length 8.45013
    axis -2.50066e-005 -0.00555246 -88.271 xyz
    dof rx ry rz
  end
:hierarchy
  begin
    root abdomenDummy lThighDummy rThighDummy
    abdomenDummy abdomen
    abdomen chest
    chest neckDummyDummy lCollarDummy rCollarDummy
    neckDummyDummy neckDummy
    neckDummy neck
    neck head
    head figureHair
    lCollarDummy lCollar
    lCollar lShldr
    lShldr lForeArm
    lForeArm lHand
    rCollarDummy rCollar
    rCollar rShldr
    rShldr rForeArm
    rForeArm rHand
    lThighDummy lThigh
    lThigh lShin
    lShin lFoot
    rThighDummy rThigh
    rThigh rShin
    rShin rFoot
  end

:SAMPLES-PER-SECOND 25
:FULLY-SPECIFIED
:DEGREES
1107
root  1.14088 35.0941 -8.08881 -166.601 -8.37723 77.3903
abdomen  7.74742 5.74633 6.78975
chest  7.99553 25.8345 -17.268
neckDummy  9.09964e-021 0 8.72668e-016
neck  16.8951 31.5618 -22.3045
head  14.7648 2.08965 -11.5093
figureHair  0 1.51661e-021 -9.5315e-016
lCollar  -5.15695e-016 -6.42944e-016 -7.59357e-014
lShldr  4.83389 11.121 -44.4163
lForeArm  24.8922 -53.9507 1.49156
lHand  0.254698 0.195082 5.2986
rCollar  1.7976e-016 -5.12864e-014 1.62755e-015
rShldr  -78.917 70.0465 -46.4656
rForeArm  -19.3618 0.810498 40.0898
rHand  0.280034 -2.39033 -4.50147
lThigh  2.96746 -12.3513 18.7538
lShin  -2.70185 35.2217 2.42212
lFoot  -7.62851 1.47508 9.17053
rThigh  21.4993 5.6847 18.7634
rShin  12.5752 17.7315 4.76888
rFoot  -12.0116 3.5462 10.6404
1108
root  1.18578 35.136 -8.05019 -166.045 -8.03979 77.5139
abdomen  7.61216 5.68392 6.61306
chest  7.89368 25.7975 -17.2571
neckDummy  9.09964e-021 0 8.72668e-016
neck  16.2335 30.6119 -23.2999
head  14.4344 2.0219 -12.0966
figureHair  0 1.51661e-021 -9.5315e-016
lCollar  -5.15695e-016 -6.42944e-016 -7.59357e-014
lShldr  3.38488 9.99056 -45.2735
lForeArm  26.4672 -50.961 1.19402
lHand  0.254698 0.195082 5.2986
rCollar  1.7976e-016 -5.12864e-014 1.62755e-015
rShldr  -78.4381 70.7144 -45.6514
rForeArm  -19.7765 0.816405 39.6848
rHand  0.236729 -1.76574 -4.73681
lThigh  2.71423 -12.5333 18.4982
lShin  -1.93513 34.7436 2.40364
lFoot  -7.50065 1.4296 8.86513
rThigh  20.926 5.6908 18.4211
rShin  13.677 17.3465 5.21029
rFoot  -12.0426 3.52964 10.522
1109
root  1.23632 35.1721 -8.00769 -165.676 -7.76653 77.6515
abdomen  7.58171 5.70259 6.6758
chest  7.79423 25.3896 -17.4779
neckDummy  9.09964e-021 0 8.72668e-016
neck  15.5101 29.9149 -24.4282
head  14.0568 1.80255 -12.6214
figureHair  0 1.51661e-021 -9.5315e-016
lCollar  -5.15695e-016 -6.42944e-016 -7.59357e-014
lShldr  1.77388 9.19645 -46.4962
lForeArm  26.5324 -49.1993 1.03753
lHand  0.254698 0.195082 5.2986
rCollar  1.7976e-016 -5.12864e-014 1.62755e-015
rShldr  -77.5815 71.105 -44.6694
rForeArm  -19.9509 0.808696 40.1211
rHand  0.22515 -1.52112 -5.0228
lThigh  2.59004 -12.658 18.1996
lShin  -1.49832 34.3478 2.38848
lFoot  -7.32719 1.3807 8.62763
rThigh  20.1678 5.66261 18.132
rShin  14.7801 16.9757 5.60333
rFoot  -12.0573 3.51598 10.4366
1110
root  1.29907 35.2095 -7.96067 -165.429 -7.51915 77.7763
abdomen  7.56868 5.84078 6.81007
chest  7.66053 24.7534 -17.7802
neckDummy  9.09964e-021 0 8.72668e-016
neck  14.797 29.3595 -25.68
head  13.7097 1.50691 -13.143
figureHair  0 1.51661e-021 -9.5315e-016
lCollar  -5.15695e-016 -6.42944e-016 -7.59357e-014
lShldr  0.650427 8.92068 -47.5513
lForeArm  25.6443 -49.069 1.02737
lHand  0.254698 0.195082 5.2986
rCollar  1.7976e-016 -5.12864e-014 1.62755e-015
rShldr  -76.6959 70.8311 -43.5658
rForeArm  -20.6142 0.776415 42.0435
rHand  0.203076 -1.14384 -5.40324
lThigh  2.60789 -12.7253 17.8341
lShin  -1.30052 33.9646 2.37352
lFoot  -7.18331 1.33686 8.37075
rThigh  19.6385 5.62028 17.8031
rShin  15.5441 16.6851 5.91045
rFoot  -12.0684 3.49538 10.3204
1111
root  1.37333 35.2524 -7.91688 -165.352 -7.30704 77.902
abdomen  7.49127 5.91109 6.9416
chest  7.50593 24.4014 -18.0135
neckDummy  9.09964e-021 0 8.72668e-016
neck  14.2469 28.6998 -26.8595
head  13.5038 1.17275 -13.5695
figureHair  0 1.51661e-021 -9.5315e-016
lCollar  -5.15695e-016 -6.42944e-016 -7.59357e-014
lShldr  0.400503 9.20997 -47.8833
lForeArm  25.2369 -50.6238 1.16572
lHand  0.254698 0.195082 5.2986
rCollar  1.7976e-016 -5.12864e-014 1.62755e-015
rShldr  -76.2394 70.0733 -42.8275
rForeArm  -22.3069 0.723639 45.098
rHand  0.117245 -0.148313 -5.5994
lThigh  2.39977 -12.6851 17.5616
lShin  -1.0635 33.4986 2.35534
lFoot  -7.06467 1.29615 8.07902
rThigh  19.0509 5.58981 17.4711
rShin  16.1799 16.3547 6.21722
rFoot  -12.1133 3.46777 10.1316
1112
root  1.43815 35.2995 -7.88582 -165.525 -7.18756 78.0402
abdomen  7.41138 5.75433 7.19581
chest  7.39748 24.5917 -18.2357
neckDummy  9.09964e-021 0 8.72668e-016
neck  13.886 27.9371 -27.7794
head  13.4112 0.803268 -13.9012
figureHair  0 1.51661e-021 -9.5315e-016
lCollar  -5.15695e-016 -6.42944e-016 -7.59357e-014
lShldr  0.712438 9.724 -47.4611
lForeArm  25.2662 -53.0048 1.39356
lHand  0.254698 0.195082 5.2986
rCollar  1.7976e-016 -5.12864e-014 1.62755e-015
rShldr  -76.4244 69.3189 -42.9581
rForeArm  -23.6748 0.666822 48.257
rHand  0.0584577 0.519117 -5.78864
lThigh  1.8021 -12.4781 17.5103
lShin  -0.703173 32.9407 2.336
lFoot  -6.94881 1.25833 7.815
rThigh  17.8253 5.68415 17.2499
rShin  17.1904 15.7281 6.67891
rFoot  -12.1679 3.4298 9.88083
1113
root  1.49042 35.3458 -7.8757 -165.792 -7.1675 78.293
abdomen  7.36604 5.59463 7.58782
chest  7.34795 24.9656 -18.3243
neckDummy  9.09964e-021 0 8.72668e-016
neck  13.6104 27.3572 -28.4128
head  13.3127 0.554454 -14.1389
figureHair  0 1.51661e-021 -9.5315e-016
lCollar  -5.15695e-016 -6.42944e-016 -7.59357e-014
lShldr  1.0771 10.0934 -46.6949
lForeArm  25.0715 -54.826 1.58507
lHand  0.254698 0.195082 5.2986
rCollar  1.7976e-016 -5.12864e-014 1.62755e-015
rShldr  -77.1111 68.669 -43.7637
rForeArm  -24.1528 0.617418 50.91
rHand  0.0739591 0.44972 -6.41587
lThigh  1.08238 -12.3233 17.5964
lShin  -0.343942 32.3917 2.31849
lFoot  -6.88547 1.2327 7.58673
rThigh  16.0089 5.80698 17.1359
rShin  18.6601 14.7965 7.32675
rFoot  -12.2641 3.39338 9.59426
1114
root  1.54249 35.3853 -7.88441 -166.06 -7.21803 78.6146
abdomen  7.33597 5.65745 7.98006
chest  7.32683 25.1261 -18.1727
neckDummy  9.09964e-021 0 8.72668e-016
neck  13.435 27.2324 -28.838
head  13.2541 0.424426 -14.1363
figureHair  0 1.51661e-021 -9.5315e-016
lCollar  -5.15695e-016 -6.42944e-016 -7.59357e-014
lShldr  1.13907 10.149 -46.0104
lForeArm  24.8752 -55.3569 1.64504
lHand  0.254698 0.195082 5.2986
rCollar  1.7976e-016 -5.12864e-014 1.62755e-015
rShldr  -77.8092 68.073 -44.3715
rForeArm  -24.6676 0.584308 52.6457
rHand  0.063884 0.61197 -6.85879
lThigh  0.441966 -12.3379 17.7343
lShin  -0.0439759 31.9353 2.30298
lFoot  -6.9265 1.2274 7.38262
rThigh  14.1071 5.8576 17.0748
rShin  20.1816 13.778 8.01477
rFoot  -12.4316 3.3688 9.29388
1115
root  1.59093 35.4171 -7.90666 -166.394 -7.3235 78.8536
abdomen  7.36065 5.74696 8.34236
chest  7.35419 25.2597 -18.0285
neckDummy  9.09964e-021 0 8.72668e-016
neck  13.4333 27.3567 -28.9943
head  13.3036 0.25055 -14.025
figureHair  0 1.51661e-021 -9.5315e-016
lCollar  -5.15695e-016 -6.42944e-016 -7.59357e-014
lShldr  0.694328 9.72755 -45.5588
lForeArm  24.8045 -54.4885 1.54948
lHand  0.254698 0.195082 5.2986
rCollar  1.7976e-016 -5.12864e-014 1.62755e-015
rShldr  -78.3312 67.9005 -44.5228
rForeArm  -25.0392 0.579824 52.8757
rHand  0.00626756 1.14208 -6.531
lThigh  -0.149178 -12.2748 17.9572
lShin  0.188613 31.5452 2.28924
lFoot  -7.04505 1.23773 7.21226
rThigh  12.4975 6.00424 17.0742
rShin  21.2949 12.7806 8.59363
rFoot  -12.6032 3.34307 8.98791
1116
root  1.62975 35.4395 -7.9467 -166.865 -7.49225 78.9892
abdomen  7.48129 5.75515 8.75424
chest  7.46278 25.5668 -17.9949
neckDummy  9.09964e-021 0 8.72668e-016
neck  13.544 27.4668 -28.7364
head  13.3511 0.0627761 -14.0808
figureHair  0 1.51661e-021 -9.5315e-016
lCollar  -5.15695e-016 -6.42944e-016 -7.59357e-014
lShldr  -0.153117 8.73683 -45.2945
lForeArm  24.3309 -52.0636 1.30147
lHand  0.254698 0.195082 5.2986
rCollar  1.7976e-016 -5.12864e-014 1.62755e-015
rShldr  -79.0041 68.4947 -44.8734
rForeArm  -24.5949 0.606261 51.4916
rHand  0.000906868 1.15965 -6.10957
lThigh  -0.67369 -12.0769 18.2683
lShin  0.265926 31.2148 2.27901
lFoot  -7.17089 1.25137 7.07919
rThigh  11.184 6.24229 17.1633
rShin  21.9873 11.8586 9.03013
rFoot  -12.7663 3.31831 8.69971
1117
root  1.6631 35.4484 -8.00154 -167.352 -7.72102 79.1442
abdomen  7.65948 5.925 9.24676
chest  7.58889 25.708 -17.9442
neckDummy  9.09964e-021 0 8.72668e-016
neck  13.6538 27.8834 -28.2885
head  13.3423 -0.12191 -14.0306
figureHair  0 1.51661e-021 -9.5315e-016
lCollar  -5.15695e-016 -6.42944e-016 -7.59357e-014
lShldr  -1.05013 7.14717 -45.1803
lForeArm  23.1754 -47.6859 0.914832
lHand  0.254698 0.195082 5.2986
rCollar  1.7976e-016 -5.12864e-014 1.62755e-015
rShldr  -79.9454 69.7024 -45.7241
rForeArm  -23.6014 0.655458 48.8667
rHand  0.0757244 0.367059 -5.9988
lThigh  -1.02663 -11.9701 18.6017
lShin  0.166984 31.0214 2.27386
lFoot  -7.26101 1.26216 7.00225
rThigh  10.025 6.35757 17.3469
rShin  22.5581 11.1266 9.34803
rFoot  -12.9601 3.31052 8.46768
1118
root  1.6893 35.4419 -8.05479 -167.707 -7.96022 79.1952
abdomen  7.83636 6.22636 9.76352
chest  7.64937 25.5797 -17.9985
neckDummy  9.09964e-021 0 8.72668e-016
neck  13.6992 28.7549 -28.1081
head  13.3441 -0.384708 -13.5629
figureHair  0 1.51661e-021 -9.5315e-016
lCollar  -5.15695e-016 -6.42944e-016 -7.59357e-014
lShldr  -1.6133 4.79477 -45.094
lForeArm  21.2329 -40.9624 0.430457
lHand  0.254698 0.195082 5.2986
rCollar  1.7976e-016 -5.12864e-014 1.62755e-015
rShldr  -81.1838 71.3256 -47.0297
rForeArm  -22.2965 0.720881 45.2524
rHand  0.171622 -0.718224 -5.68862
lThigh  -1.19296 -11.9545 18.9333
lShin  0.0408201 31.0289 2.27502
lFoot  -7.34007 1.27673 7.0139
rThigh  9.29499 6.41361 17.585
rShin  22.8659 10.6966 9.52958
rFoot  -13.1161 3.31148 8.31866
1119
root  1.70404 35.4216 -8.10991 -167.932 -8.17642 79.0696
abdomen  7.97041 6.39039 10.1621
chest  7.67605 25.6354 -18.1661
neckDummy  9.09964e-021 0 8.72668e-016
neck  13.6921 29.4929 -28.1571
head  13.3541 -0.557781 -13.1313
figureHair  0 1.51661e-021 -9.5315e-016
lCollar  -5.15695e-016 -6.42944e-016 -7.59357e-014
lShldr  -1.19655 1.73934 -44.7221
lForeArm  17.8529 -32.1588 -0.0623033
lHand  0.254698 0.195082 5.2986
rCollar  1.7976e-016 -5.12864e-014 1.62755e-015
rShldr  -83.4134 73.3414 -49.3781
rForeArm  -20.819 0.794349 40.9842
rHand  0.234801 -1.57531 -5.1721
lThigh  -1.27639 -11.8991 19.2989
lShin  0.0158221 31.2129 2.28252
lFoot  -7.46992 1.30456 7.09071
rThigh  9.34499 6.52882 17.8412
rShin  22.589 10.646 9.5459
rFoot  -13.1986 3.31956 8.27698
1120
root  1.7084 35.389 -8.18504 -168.067 -8.37639 78.852
abdomen  8.03561 6.52925 10.3868
chest  7.70183 25.9211 -18.1539
neckDummy  9.09964e-021 0 8.72668e-016
neck  13.749 29.8596 -28.0382
head  13.3728 -0.512226 -13.1284
figureHair  0 1.51661e-021 -9.5315e-016
lCollar  -5.15695e-016 -6.42944e-016 -7.59357e-014
lShldr  1.16118 -1.39922 -43.909
lForeArm  12.3916 -22.5497 -0.5873
lHand  0.254698 0.195082 5.2986
rCollar  1.7976e-016 -5.12864e-014 1.62755e-015
rShldr  -87.2428 75.4819 -53.0736
rForeArm  -19.8779 0.86348 36.7281
rHand  0.258403 -2.0003 -4.78756
lThigh  -1.33844 -11.8645 19.7227
lShin  0.0782492 31.5147 2.29405
lFoot  -7.65667 1.34457 7.19637
rThigh  9.75738 6.60901 18.1532
rShin  22.1216 10.8622 9.46609
rFoot  -13.3109 3.35521 8.33908
1121
root  1.69923 35.3476 -8.26937 -168.113 -8.58409 78.5944
abdomen  8.06482 6.84573 10.6314
chest  7.65838 25.9768 -18.1034
neckDummy  9.09964e-021 0 8.72668e-016
neck  13.8856 30.2854 -27.7563
head  13.4205 -0.396889 -13.1957
figureHair  0 1.51661e-021 -9.5315e-016
lCollar  -5.15695e-016 -6.42944e-016 -7.59357e-014
lShldr  3.81837 -3.86685 -43.0154
lForeArm  7.76756 -14.1499 -2.08778
lHand  0.254698 0.195082 5.2986
rCollar  1.7976e-016 -5.12864e-014 1.62755e-015
rShldr  -91.7522 77.2418 -56.8015
rForeArm  -19.7114 0.918006 33.2515
rHand  0.242876 -1.94594 -4.48068
lThigh  -1.30246 -11.8738 20.1709
lShin  0.151108 31.9037 2.30764
lFoot  -7.84634 1.38928 7.35626
rThigh  9.96155 6.7176 18.5356
rShin  21.9708 11.0576 9.42772
rFoot  -13.4627 3.40821 8.44467
